<?xml version="1.0" encoding="UTF-8"?>
<svg width="20px" height="20px" viewBox="0 0 20 20" version="1.1" xmlns="http://www.w3.org/2000/svg" xmlns:xlink="http://www.w3.org/1999/xlink">
    <!-- Generator: Sketch 51 (57462) - http://www.bohemiancoding.com/sketch -->
    <title>Shape</title>
    <desc>Created with Sketch.</desc>
    <defs></defs>
    <g id="Page-1" stroke="none" stroke-width="1" fill="none" fill-rule="evenodd">
        <g id="Home-Doc-Pendente-Vertical-Tabs-Dados-da-Carga" transform="translate(-330.000000, -764.000000)">
            <rect fill="#FFFFFF" x="0" y="0" width="1600" height="1440"></rect>
            <path d="M339.071242,769.871863 L339.069379,769.874379 C338.901895,769.720621 338.681895,769.625 338.437516,769.625 C337.920033,769.625 337.5,770.045 337.5,770.562516 C337.5,770.836275 337.618758,771.08 337.805621,771.251275 L337.803758,771.253791 L340.8,774 L337.803725,776.746895 L337.805588,776.749379 C337.618725,776.92 337.499967,777.163758 337.499967,777.437516 C337.499967,777.955033 337.919967,778.375033 338.437484,778.375033 C338.681863,778.375033 338.901863,778.279412 339.069346,778.126307 L339.071209,778.128791 L342.821209,774.691275 C343.014346,774.513137 343.124967,774.263137 343.124967,774.000033 C343.124967,773.736928 343.014346,773.486895 342.821209,773.308791 L339.071242,769.871863 Z M340,764 C334.477516,764 330,768.477516 330,774 C330,779.522484 334.477516,784 340,784 C345.522484,784 350,779.522484 350,774 C350,768.477516 345.522484,764 340,764 Z M340,782.125 C335.52,782.125 331.875,778.48 331.875,774 C331.875,769.52 335.52,765.875 340,765.875 C344.48,765.875 348.125,769.52 348.125,774 C348.125,778.48 344.48,782.125 340,782.125 Z" id="Shape" fill="#00254A" fill-rule="nonzero" transform="translate(340.000000, 774.000000) rotate(90.000000) translate(-340.000000, -774.000000) "></path>
        </g>
    </g>
</svg>